<svg height="512pt" viewBox="-16 0 512 512" width="512pt" xmlns="http://www.w3.org/2000/svg"><path d="m480 271c0 132.597656-107.402344 241-240 241s-240-108.402344-240-241c0-122.402344 91.5-224.199219 210-238.898438v64.199219c-69.300781 19.800781-120 84.097657-120 159.699219 0 86.101562 65.699219 157.597656 150 165.097656 4.800781.601563 9.902344.902344 15 .902344 91.199219 0 165-74.800781 165-166 0-86.101562-66-157.597656-150-165.097656v-58.800782c118.5 14.699219 210 116.496094 210 238.898438zm0 0" fill="#93bf00"/><path d="m480 271c0 132.597656-107.402344 241-240 241v-90.902344c4.800781.601563 9.902344.902344 15 .902344 91.199219 0 165-74.800781 165-166 0-86.101562-66-157.597656-150-165.097656v-58.800782c118.5 14.699219 210 116.496094 210 238.898438zm0 0" fill="#81a713"/><path d="m330 60c0 19.5-29.097656 36.300781-60 47.402344l-15-2.402344-15 11.101562c-11.699219 2.398438-22.199219 3.898438-30 3.898438-9.601562 0-16.800781-2.402344-21.597656-7.199219-8.703125-8.703125-8.703125-25.5-8.402344-44.699219v-15.902343c-.300781-19.5-.300781-36.296875 8.402344-45 4.796875-4.796875 11.996094-7.199219 21.597656-7.199219 7.800781 0 18.300781 1.5 30 3.898438l15 11.101562 15-2.402344c30.902344 11.101563 60 27.902344 60 47.402344zm0 0" fill="#a8d32a"/><g fill="#582b1f"><path d="m270 45v-32.363281c-10.128906-3.574219-20.398438-6.480469-30-8.601563v40.964844zm0 0"/><path d="m240 75v40.964844c9.601562-2.121094 19.871094-5.027344 30-8.601563v-32.363281zm0 0"/></g></svg>